<?xml version="1.0" standalone="no"?>
<!DOCTYPE svg PUBLIC "-//W3C//DTD SVG 20010904//EN"
 "http://www.w3.org/TR/2001/REC-SVG-20010904/DTD/svg10.dtd">
<svg version="1.0" xmlns="http://www.w3.org/2000/svg"
 width="64.000000pt" height="64.000000pt" viewBox="0 0 64.000000 64.000000"
 preserveAspectRatio="xMidYMid meet">
<metadata>
Created by potrace 1.16, written by Peter Selinger 2001-2019
</metadata>
<g transform="translate(0.000000,64.000000) scale(0.100000,-0.100000)"
fill="#000000" stroke="none">
<path d="M117 463 c-20 -20 6 -138 39 -175 36 -39 143 -48 189 -14 15 11 12
13 -29 14 -26 1 -60 9 -75 17 -42 21 -89 80 -101 125 -11 42 -13 44 -23 33z"/>
<path d="M440 385 c0 -74 -79 -145 -170 -154 -49 -5 -58 -9 -50 -20 10 -16
122 -28 164 -17 38 9 76 81 76 142 0 27 -5 56 -10 64 -7 12 -10 8 -10 -15z"/>
</g>
</svg>
