<?xml version="1.0" standalone="no"?>
<!DOCTYPE svg PUBLIC "-//W3C//DTD SVG 20010904//EN"
 "http://www.w3.org/TR/2001/REC-SVG-20010904/DTD/svg10.dtd">
<svg version="1.0" xmlns="http://www.w3.org/2000/svg"
 width="512.000000pt" height="512.000000pt" viewBox="0 0 512.000000 512.000000"
 preserveAspectRatio="xMidYMid meet">
<metadata>
Created by potrace 1.16, written by Peter Selinger 2001-2019
</metadata>
<g transform="translate(0.000000,512.000000) scale(0.100000,-0.100000)"
fill="#000000" stroke="none">
<path d="M1875 4769 c-192 -117 -395 -283 -521 -426 -89 -102 -98 -121 -119
-240 -88 -502 75 -1004 437 -1349 94 -89 265 -214 294 -214 23 0 17 17 -35 93
-142 211 -224 453 -239 706 -27 447 129 847 457 1171 69 68 68 74 -1 12 l-26
-24 -21 21 c-12 12 -28 21 -36 21 -8 0 -15 5 -15 10 0 6 -3 9 -7 8 -14 -4 -54
23 -84 55 -23 27 -28 41 -29 84 0 31 -6 57 -14 66 -13 12 -9 17 25 36 33 19
48 31 37 31 -2 0 -48 -27 -103 -61z"/>
<path d="M3016 4794 c-512 -79 -923 -391 -1134 -860 -59 -133 -117 -344 -94
-344 6 0 33 32 62 70 197 272 514 476 842 544 330 68 658 29 953 -114 159 -76
335 -206 444 -327 33 -37 63 -64 67 -61 12 13 24 86 30 188 l7 105 -64 84
c-197 262 -486 497 -808 658 -159 80 -158 80 -305 57z"/>
<path d="M2742 4133 c-18 -2 -32 -9 -30 -15 2 -6 55 -27 118 -48 201 -64 368
-162 516 -303 392 -371 564 -932 444 -1445 -23 -96 -24 -111 -5 -62 8 20 14
27 14 17 1 -16 3 -16 16 -5 32 29 45 38 53 38 5 0 16 8 23 18 13 15 12 16 -4
3 -22 -17 -33 -8 -13 10 35 31 44 37 50 32 3 -4 6 0 6 7 0 7 3 10 7 7 3 -4 12
1 19 11 9 11 13 13 14 4 0 -7 4 -11 9 -8 11 7 72 -14 67 -23 -3 -4 6 -15 19
-25 20 -15 22 -22 14 -43 -5 -14 -8 -28 -6 -30 8 -8 37 78 31 89 -4 6 -2 8 4
5 6 -4 17 12 26 40 18 53 20 64 6 43 -8 -12 -10 -11 -10 7 0 24 16 40 22 21
10 -29 98 269 128 436 11 61 25 156 31 210 l10 99 -35 71 c-143 289 -402 547
-698 693 -219 109 -364 143 -623 148 -104 2 -205 1 -223 -2z"/>
<path d="M948 3702 c-56 -57 -100 -110 -104 -126 -10 -42 3 -228 27 -367 53
-314 183 -654 343 -903 60 -92 76 -106 192 -165 440 -221 991 -204 1414 44 44
26 83 52 87 58 4 7 -1 6 -10 -2 -14 -11 -20 -11 -32 -1 -18 15 -19 37 -2 43 8
4 8 6 0 6 -6 1 -9 10 -6 21 3 13 0 20 -8 21 -8 1 6 7 31 15 51 16 37 14 -109
-11 -235 -41 -547 -3 -779 96 -396 168 -692 492 -827 904 -38 117 -75 305 -75
385 0 108 -21 106 -142 -18z"/>
<path d="M3527 3223 c-9 -225 -45 -369 -142 -568 -128 -266 -348 -491 -615
-629 -298 -155 -617 -203 -975 -146 -38 6 -92 18 -119 26 -64 18 -75 8 -51
-48 37 -86 128 -240 151 -255 29 -18 182 -58 324 -84 173 -31 452 -45 637 -31
155 11 367 42 430 63 42 14 181 152 266 264 74 98 172 287 211 405 53 162 70
271 70 465 0 190 -15 290 -65 445 -35 106 -90 230 -104 230 -9 0 -14 -38 -18
-137z"/>
<path d="M1250 965 c-92 -30 -152 -118 -152 -221 0 -142 96 -234 244 -234 76
0 130 23 180 74 79 81 79 236 0 319 -62 66 -179 93 -272 62z m167 -95 c42 -25
63 -68 63 -127 0 -90 -55 -143 -149 -143 -42 0 -55 5 -84 33 -20 18 -40 51
-48 75 -11 38 -10 48 7 90 36 85 134 119 211 72z"/>
<path d="M2847 927 c-2 -23 -3 -60 -1 -82 1 -22 3 -104 3 -182 l1 -143 45 0
45 0 0 59 0 58 81 6 c138 11 193 57 193 162 0 65 -26 111 -79 139 -33 17 -61
21 -161 23 l-122 3 -5 -43z m253 -67 c12 -12 20 -33 20 -55 0 -57 -27 -75
-110 -75 l-70 0 0 75 0 75 70 0 c57 0 74 -4 90 -20z"/>
<path d="M2683 953 c-8 -2 -13 -22 -13 -44 0 -35 3 -40 38 -54 l37 -16 -32
-27 -32 -27 -3 -135 -3 -135 48 -3 47 -3 0 220 0 221 -24 0 c-13 0 -30 2 -38
4 -7 3 -19 2 -25 -1z"/>
<path d="M1640 685 l0 -175 45 0 45 0 0 110 c0 104 1 112 25 135 29 30 68 32
95 5 18 -18 20 -33 20 -135 l0 -115 44 0 44 0 4 116 c3 108 5 117 27 135 29
24 73 24 94 1 13 -14 17 -44 19 -132 l3 -115 45 0 45 0 3 95 c4 129 -4 175
-37 212 -24 27 -36 32 -87 36 -50 3 -64 0 -94 -20 l-35 -24 -35 24 c-29 20
-44 23 -87 20 -31 -3 -61 -12 -72 -22 -17 -16 -19 -16 -24 4 -4 16 -13 20 -46
20 l-41 0 0 -175z"/>
<path d="M2264 847 c-2 -7 -3 -85 -2 -172 l3 -160 45 0 45 0 5 118 c6 132 13
147 75 147 62 0 69 -15 75 -147 l5 -118 44 0 43 0 -1 129 c-2 143 -12 176 -61
201 -44 23 -122 20 -154 -6 l-27 -21 -6 21 c-4 17 -13 21 -44 21 -23 0 -42 -5
-45 -13z"/>
<path d="M3335 846 c-85 -38 -119 -154 -72 -246 39 -80 152 -114 225 -70 26
16 32 17 32 5 0 -11 12 -15 45 -15 l45 0 0 170 c0 185 3 176 -59 164 -17 -4
-31 -13 -31 -20 0 -10 -8 -9 -32 6 -38 23 -108 26 -153 6z m160 -92 c35 -38
35 -105 0 -139 -33 -34 -93 -34 -132 -1 -23 20 -28 32 -28 71 0 39 5 51 28 71
40 34 99 33 132 -2z"/>
<path d="M3640 855 c0 -1 33 -79 74 -173 l74 -172 -20 -26 c-17 -21 -28 -25
-58 -22 -35 3 -39 1 -48 -29 -13 -42 0 -53 65 -53 84 0 105 26 207 266 47 110
86 202 86 205 0 2 -21 3 -47 3 l-46 -1 -45 -112 c-25 -62 -48 -108 -52 -104
-4 4 -26 54 -50 111 -34 82 -46 102 -64 104 -64 4 -76 5 -76 3z"/>
</g>
</svg>
